<?xml version="1.0" encoding="UTF-8" standalone="no"?>
<!-- Created with Inkscape (http://www.inkscape.org/) -->

<svg
   width="286.76089mm"
   height="98.146965mm"
   viewBox="0 0 1083.8207 370.94917"
   version="1.1"
   id="svg1"
   inkscape:export-filename="GeoVentra Logo 3D.svg"
   inkscape:export-xdpi="96"
   inkscape:export-ydpi="96"
   inkscape:version="1.4.3 (0d15f75, 2025-12-25)"
   sodipodi:docname="GeoVentraLogo.svg"
   xmlns:inkscape="http://www.inkscape.org/namespaces/inkscape"
   xmlns:sodipodi="http://sodipodi.sourceforge.net/DTD/sodipodi-0.dtd"
   xmlns="http://www.w3.org/2000/svg"
   xmlns:svg="http://www.w3.org/2000/svg">
  <sodipodi:namedview
     id="namedview1"
     pagecolor="#ffffff"
     bordercolor="#000000"
     borderopacity="0.25"
     inkscape:showpageshadow="2"
     inkscape:pageopacity="0.0"
     inkscape:pagecheckerboard="0"
     inkscape:deskcolor="#d1d1d1"
     inkscape:document-units="mm"
     inkscape:zoom="0.62488389"
     inkscape:cx="519.29647"
     inkscape:cy="464.88636"
     inkscape:window-width="1440"
     inkscape:window-height="802"
     inkscape:window-x="0"
     inkscape:window-y="25"
     inkscape:window-maximized="0"
     inkscape:current-layer="svg1">
    <inkscape:page
       x="-4.6262615e-22"
       y="0"
       width="1083.8207"
       height="370.94916"
       id="page2"
       margin="0"
       bleed="0" />
  </sodipodi:namedview>
  <defs
     id="defs1" />
  <g
     id="g1"
     transform="translate(-28.19922,-218.63867)">
    <path
       id="path23"
       style="fill:#000000;fill-opacity:1"
       d="M 163.70899,218.63868 A 140.11168,184.17195 0 0 0 28.199219,402.71095 140.11168,184.17195 0 0 0 142.14063,583.64259 175.35989,217.65776 0 0 1 72.259767,409.75978 175.35989,217.65776 0 0 1 163.70899,218.63868 Z" />
    <path
       d="m 238.52291,146.15496 h 47.424 v 67.2 q -11.136,3.648 -22.464,5.376 -11.328,1.728 -25.728,1.728 -21.312,0 -35.904,-8.448 -14.592,-8.64 -22.272,-24.384 -7.488,-15.936 -7.488,-37.632 0,-21.504 8.448,-37.248 8.448,-15.744004 24.192,-24.384004 15.936,-8.832 38.4,-8.832 11.52,0 21.696,2.112 10.368,2.112 19.2,5.952 l -6.528,14.976004 q -7.296,-3.264004 -16.512,-5.568004 -9.024,-2.304 -18.816,-2.304 -16.32,0 -28.032,6.720004 -11.712,6.72 -17.856,19.2 -6.144,12.288 -6.144,29.376 0,16.32 5.184,28.992 5.376,12.48 16.704,19.584 11.328,6.912 29.76,6.912 9.024,0 15.36,-0.96 6.336,-0.96 11.52,-2.304 v -40.704 h -30.144 z m 117.69612,-32.448 q 13.248,0 22.656,5.76 9.6,5.76 14.592,16.32 5.184,10.368 5.184,24.384 v 10.176 h -70.464 q 0.384,17.472 8.832,26.688 8.64,9.024 24,9.024 9.792,0 17.28,-1.728 7.68,-1.92 15.744,-5.376 v 14.784 q -7.872,3.456 -15.552,4.992 -7.68,1.728 -18.24,1.728 -14.592,0 -25.92,-5.952 -11.136,-5.952 -17.472,-17.664 -6.144,-11.904 -6.144,-28.992 0,-16.896 5.568,-28.992 5.76,-12.096 15.936,-18.624 10.368,-6.528 24,-6.528 z m -0.192,13.824 q -12.096,0 -19.2,7.872 -6.912,7.68 -8.256,21.504 h 52.416 q 0,-8.832 -2.688,-15.36 -2.688,-6.528 -8.256,-10.176 -5.376,-3.84 -14.016,-3.84 z m 158.20784,39.36 q 0,12.864 -3.456,22.848 -3.264,9.792 -9.6,16.704 -6.144,6.912 -15.168,10.56 -8.832,3.456 -19.776,3.456 -10.176,0 -18.816,-3.456 -8.64,-3.648 -14.976,-10.56 -6.336,-6.912 -9.984,-16.704 -3.456,-9.984 -3.456,-22.848 0,-17.088 5.76,-28.8 5.76,-11.904 16.512,-18.048 10.752,-6.336 25.536,-6.336 14.016,0 24.576,6.336 10.752,6.144 16.704,18.048 6.144,11.712 6.144,28.8 z m -77.76,0 q 0,12.096 3.072,21.12 3.264,8.832 9.984,13.632 6.72,4.8 17.088,4.8 10.368,0 17.088,-4.8 6.72,-4.8 9.792,-13.632 3.264,-9.024 3.264,-21.12 0,-12.288 -3.264,-20.928 -3.264,-8.64 -9.984,-13.248 -6.528,-4.8 -17.088,-4.8 -15.744,0 -22.848,10.368 -7.104,10.368 -7.104,28.608 z m 203.32791,-85.440004 -48.96,137.088004 h -17.28 l -48.96,-137.088004 h 18.048 l 30.912,87.936004 q 2.112,5.568 3.648,10.752 1.536,5.184 2.688,9.984 1.344,4.608 2.304,9.216 0.96,-4.608 2.112,-9.408 1.344,-4.8 2.88,-9.984 1.728,-5.184 3.648,-10.944 l 30.72,-87.552004 z m 52.22399,32.256004 q 13.248,0 22.656,5.76 9.6,5.76 14.592,16.32 5.184,10.368 5.184,24.384 v 10.176 h -70.464 q 0.384,17.472 8.832,26.688 8.64,9.024 24,9.024 9.792,0 17.28,-1.728 7.68,-1.92 15.744,-5.376 v 14.784 q -7.872,3.456 -15.552,4.992 -7.68,1.728 -18.24,1.728 -14.592,0 -25.92,-5.952 -11.136,-5.952 -17.472,-17.664 -6.144,-11.904 -6.144,-28.992 0,-16.896 5.568,-28.992 5.76,-12.096 15.936,-18.624 10.368,-6.528 24,-6.528 z m -0.192,13.824 q -12.096,0 -19.2,7.872 -6.912,7.68 -8.256,21.504 h 52.416 q 0,-8.832 -2.688,-15.36 -2.688,-6.528 -8.256,-10.176 -5.376,-3.84 -14.016,-3.84 z m 118.27184,-13.824 q 18.432,0 27.84,9.024 9.408,8.832 9.408,28.8 v 67.008 h -16.704 v -65.856 q 0,-12.48 -5.568,-18.624 -5.568,-6.144 -17.472,-6.144 -17.088,0 -23.616,9.6 -6.528,9.6 -6.528,27.648 v 53.376 h -16.896 v -102.912 h 13.632 l 2.496,14.016 h 0.96 q 3.456,-5.376 8.448,-8.832 5.184,-3.648 11.328,-5.376 6.144,-1.728 12.672,-1.728 z m 103.48801,92.928 q 3.84,0 7.872,-0.576 4.032,-0.768 6.528,-1.536 v 12.864 q -2.688,1.344 -7.68,2.112 -4.992,0.96 -9.6,0.96 -8.064,0 -14.976,-2.688 -6.72,-2.88 -10.944,-9.792 -4.224,-6.912 -4.224,-19.392 v -59.904 h -14.592 v -8.064 l 14.784,-6.72 6.72,-21.888004 h 9.984 v 23.616004 h 29.76 v 13.056 h -29.76 v 59.52 q 0,9.408 4.416,14.016 4.608,4.416 11.712,4.416 z m 82.94401,-92.928 q 2.88,0 6.14397,0.384 3.456,0.192 5.952,0.768 l -2.112,15.552 q -2.496,-0.576 -5.568,-0.96 -2.87997,-0.384 -5.56797,-0.384 -5.952,0 -11.328,2.496 -5.376,2.496 -9.6,7.104 -4.224,4.416 -6.72,10.752 -2.304,6.336 -2.304,14.208 v 54.912 h -16.896 v -102.912 h 13.824 l 1.92,18.816 h 0.768 q 3.264,-5.76 7.872,-10.368 4.608,-4.8 10.56,-7.488 5.952,-2.88 13.056,-2.88 z m 66.43197,0.192 q 18.816,0 27.84,8.256 9.024,8.256 9.024,26.304 v 70.08 h -12.288 l -3.264,-14.592 h -0.768 q -4.416,5.568 -9.216,9.408 -4.608,3.648 -10.752,5.376 -5.952,1.728 -14.592,1.728 -9.216,0 -16.704,-3.264 -7.296,-3.264 -11.52,-9.984 -4.224,-6.912 -4.224,-17.28 0,-15.36 12.096,-23.616 12.096,-8.448 37.248,-9.216 l 17.472,-0.576 v -6.144 q 0,-12.864 -5.568,-17.856 -5.568,-4.992 -15.744,-4.992 -8.064,0 -15.36,2.496 -7.296,2.304 -13.632,5.376 l -5.184,-12.672 q 6.72,-3.648 15.936,-6.144 9.216,-2.688 19.2,-2.688 z m 4.992,54.912 q -19.2,0.768 -26.688,6.144 -7.296,5.376 -7.296,15.168 0,8.64 5.184,12.672 5.376,4.032 13.632,4.032 13.056,0 21.696,-7.104 8.64,-7.296 8.64,-22.272 v -9.216 z"
       id="text23"
       style="font-size:192px;font-family:'Noto Sans Adlam';-inkscape-font-specification:'Noto Sans Adlam';white-space:pre;inline-size:1027.27"
       transform="translate(-65.209206,257.312)"
       aria-label="GeoVentra" />
    <rect
       style="fill:#000000;fill-opacity:1"
       id="rect25"
       width="940.69629"
       height="9.6112003"
       x="163.70268"
       y="218.63919" />
    <rect
       style="fill:#000000;fill-opacity:1;stroke-width:2.84376"
       id="rect25-6"
       width="44.430233"
       height="8.9843426"
       x="153.19299"
       y="219.26826"
       ry="4.4921713" />
    <ellipse
       style="fill:#000000;fill-opacity:1;stroke-width:1"
       id="path37"
       cx="163.69922"
       cy="218.71289"
       rx="0.0625"
       ry="0.072265625" />
    <path
       style="fill:#000000;fill-opacity:1"
       d="m 163.8125,218.73829 c -0.007,-0.004 -0.0156,-0.0182 -0.0195,-0.0117 -0.004,0.007 0.0258,0.0159 0.0195,0.0117 -0.0102,-0.007 -0.021,-0.0127 -0.0312,-0.0195 -0.003,-0.002 -0.005,-0.006 -0.008,-0.008 -0.007,-0.004 -0.0478,-0.0204 -0.0508,-0.0234 -9.2e-4,-9.2e-4 9.2e-4,-0.003 0,-0.004 -0.005,-0.005 -0.0213,-0.005 -0.0273,-0.008 -0.006,-0.003 -0.006,-0.006 -0.008,-0.008 -0.002,-0.002 -0.006,0.002 -0.008,0 -9.2e-4,-9.2e-4 9.2e-4,-0.003 0,-0.004 -0.002,-0.002 -0.006,0.002 -0.008,0 -9.2e-4,-9.2e-4 9.3e-4,-0.003 0,-0.004 -0.002,-0.002 -0.0165,0 -0.0195,0 -0.005,0 -0.0281,-0.003 -0.0312,0 -9.2e-4,9.2e-4 9.2e-4,0.003 0,0.004 -9.2e-4,9.2e-4 -0.003,-5.8e-4 -0.004,0 -0.003,0.002 -0.005,0.006 -0.008,0.008 -0.002,0.001 -0.006,-0.002 -0.008,0 -9.2e-4,9.3e-4 9.2e-4,0.003 0,0.004 -0.002,0.002 -0.005,-0.001 -0.008,0 -0.007,0.003 -0.0126,0.008 -0.0195,0.0117 -0.002,10e-4 -0.005,-0.001 -0.008,0 -0.01,0.005 -0.0198,0.008 -0.0312,0.0117 -0.0125,0.004 -0.0199,0.0139 -0.0312,0.0195"
       id="path50" />
    <path
       style="fill:#000000;fill-opacity:1"
       d="m 163.95667,218.95644 0.40049,3.8701"
       id="path51" />
    <path
       style="fill:#000000;fill-opacity:1"
       d="m 164.23299,224.37174 -0.35871,-5.72553"
       id="path52" />
    <path
       style="fill:#000000;fill-opacity:1"
       d="m 162.08074,218.85316 -11.3089,7.29163"
       id="path53" />
    <path
       style="fill:#000000;fill-opacity:1"
       d="m 154.7443,228.61135 -4.25806,-3.76475"
       id="path54" />
    <path
       style="fill:#000000;fill-opacity:1"
       d="m 149.99293,223.73016 5.21872,4.20613 m 5.42644,-1.97325 0.83084,0.026"
       id="path55" />
    <path
       style="fill:#000000;fill-opacity:1"
       d="m 163.2864,225.4957 -11.06059,-0.70103"
       id="path56" />
    <path
       style="fill:#000000;fill-opacity:1"
       d="m 155.57515,222.43197 -3.50512,1.94728"
       id="path57" />
    <path
       style="fill:#000000;fill-opacity:1"
       d="m 154.71834,226.6381 8.87962,-5.66011"
       id="path58" />
    <path
       style="fill:#000000;fill-opacity:1"
       d="m 164.28516,219.12892 5.04744,4.06463"
       id="path60" />
    <path
       style="fill:#000000;fill-opacity:1"
       d="m 180.37603,226.4872 -10.40796,-2.24228"
       id="path61" />
    <path
       style="fill:#000000;fill-opacity:1"
       d="m 165.65416,226.20579 -0.86278,1.49026"
       id="path62" />
    <path
       style="fill:#000000;fill-opacity:1"
       d="m 162.41406,219.22657 0.96875,-0.52344 0.48828,-0.0117 0.008,0.77343 z"
       id="path63" />
    <path
       style="fill:#000000;fill-opacity:1"
       d="m 162.36719,219.72267 0.95442,0.24435 -5.22395,8.28299 z"
       id="path64" />
    <path
       style="fill:#000000;fill-opacity:1"
       d="m 157.30051,227.02305 -0.10386,-0.0687 z"
       id="path65" />
    <rect
       style="fill:#000000;fill-opacity:1"
       id="rect65"
       width="9.2925386"
       height="3.5769908"
       x="148.88428"
       y="224.67575"
       ry="0.60557717" />
    <path
       style="fill:#000000"
       d="m 120.98234,251.27102 983.41606,-23.02101 -0.2656,-0.62109 -957.35563,-0.79146 z"
       id="path1" />
  </g>
  <g
     id="g2"
     transform="translate(-20.578222,-212.6934)"
     style="display:none;opacity:0.311558">
    <path
       id="path23-7"
       style="fill:#000000;fill-opacity:1"
       d="M 163.70899,218.63868 A 140.11168,184.17195 0 0 0 28.199219,402.71095 140.11168,184.17195 0 0 0 142.14063,583.64259 175.35989,217.65776 0 0 1 72.259767,409.75978 175.35989,217.65776 0 0 1 163.70899,218.63868 Z" />
    <path
       d="m 238.52291,146.15496 h 47.424 v 67.2 q -11.136,3.648 -22.464,5.376 -11.328,1.728 -25.728,1.728 -21.312,0 -35.904,-8.448 -14.592,-8.64 -22.272,-24.384 -7.488,-15.936 -7.488,-37.632 0,-21.504 8.448,-37.248 8.448,-15.744004 24.192,-24.384004 15.936,-8.832 38.4,-8.832 11.52,0 21.696,2.112 10.368,2.112 19.2,5.952 l -6.528,14.976004 q -7.296,-3.264004 -16.512,-5.568004 -9.024,-2.304 -18.816,-2.304 -16.32,0 -28.032,6.720004 -11.712,6.72 -17.856,19.2 -6.144,12.288 -6.144,29.376 0,16.32 5.184,28.992 5.376,12.48 16.704,19.584 11.328,6.912 29.76,6.912 9.024,0 15.36,-0.96 6.336,-0.96 11.52,-2.304 v -40.704 h -30.144 z m 117.69612,-32.448 q 13.248,0 22.656,5.76 9.6,5.76 14.592,16.32 5.184,10.368 5.184,24.384 v 10.176 h -70.464 q 0.384,17.472 8.832,26.688 8.64,9.024 24,9.024 9.792,0 17.28,-1.728 7.68,-1.92 15.744,-5.376 v 14.784 q -7.872,3.456 -15.552,4.992 -7.68,1.728 -18.24,1.728 -14.592,0 -25.92,-5.952 -11.136,-5.952 -17.472,-17.664 -6.144,-11.904 -6.144,-28.992 0,-16.896 5.568,-28.992 5.76,-12.096 15.936,-18.624 10.368,-6.528 24,-6.528 z m -0.192,13.824 q -12.096,0 -19.2,7.872 -6.912,7.68 -8.256,21.504 h 52.416 q 0,-8.832 -2.688,-15.36 -2.688,-6.528 -8.256,-10.176 -5.376,-3.84 -14.016,-3.84 z m 158.20784,39.36 q 0,12.864 -3.456,22.848 -3.264,9.792 -9.6,16.704 -6.144,6.912 -15.168,10.56 -8.832,3.456 -19.776,3.456 -10.176,0 -18.816,-3.456 -8.64,-3.648 -14.976,-10.56 -6.336,-6.912 -9.984,-16.704 -3.456,-9.984 -3.456,-22.848 0,-17.088 5.76,-28.8 5.76,-11.904 16.512,-18.048 10.752,-6.336 25.536,-6.336 14.016,0 24.576,6.336 10.752,6.144 16.704,18.048 6.144,11.712 6.144,28.8 z m -77.76,0 q 0,12.096 3.072,21.12 3.264,8.832 9.984,13.632 6.72,4.8 17.088,4.8 10.368,0 17.088,-4.8 6.72,-4.8 9.792,-13.632 3.264,-9.024 3.264,-21.12 0,-12.288 -3.264,-20.928 -3.264,-8.64 -9.984,-13.248 -6.528,-4.8 -17.088,-4.8 -15.744,0 -22.848,10.368 -7.104,10.368 -7.104,28.608 z m 203.32791,-85.440004 -48.96,137.088004 h -17.28 l -48.96,-137.088004 h 18.048 l 30.912,87.936004 q 2.112,5.568 3.648,10.752 1.536,5.184 2.688,9.984 1.344,4.608 2.304,9.216 0.96,-4.608 2.112,-9.408 1.344,-4.8 2.88,-9.984 1.728,-5.184 3.648,-10.944 l 30.72,-87.552004 z m 52.22399,32.256004 q 13.248,0 22.656,5.76 9.6,5.76 14.592,16.32 5.184,10.368 5.184,24.384 v 10.176 h -70.464 q 0.384,17.472 8.832,26.688 8.64,9.024 24,9.024 9.792,0 17.28,-1.728 7.68,-1.92 15.744,-5.376 v 14.784 q -7.872,3.456 -15.552,4.992 -7.68,1.728 -18.24,1.728 -14.592,0 -25.92,-5.952 -11.136,-5.952 -17.472,-17.664 -6.144,-11.904 -6.144,-28.992 0,-16.896 5.568,-28.992 5.76,-12.096 15.936,-18.624 10.368,-6.528 24,-6.528 z m -0.192,13.824 q -12.096,0 -19.2,7.872 -6.912,7.68 -8.256,21.504 h 52.416 q 0,-8.832 -2.688,-15.36 -2.688,-6.528 -8.256,-10.176 -5.376,-3.84 -14.016,-3.84 z m 118.27184,-13.824 q 18.432,0 27.84,9.024 9.408,8.832 9.408,28.8 v 67.008 h -16.704 v -65.856 q 0,-12.48 -5.568,-18.624 -5.568,-6.144 -17.472,-6.144 -17.088,0 -23.616,9.6 -6.528,9.6 -6.528,27.648 v 53.376 h -16.896 v -102.912 h 13.632 l 2.496,14.016 h 0.96 q 3.456,-5.376 8.448,-8.832 5.184,-3.648 11.328,-5.376 6.144,-1.728 12.672,-1.728 z m 103.48801,92.928 q 3.84,0 7.872,-0.576 4.032,-0.768 6.528,-1.536 v 12.864 q -2.688,1.344 -7.68,2.112 -4.992,0.96 -9.6,0.96 -8.064,0 -14.976,-2.688 -6.72,-2.88 -10.944,-9.792 -4.224,-6.912 -4.224,-19.392 v -59.904 h -14.592 v -8.064 l 14.784,-6.72 6.72,-21.888004 h 9.984 v 23.616004 h 29.76 v 13.056 h -29.76 v 59.52 q 0,9.408 4.416,14.016 4.608,4.416 11.712,4.416 z m 82.94401,-92.928 q 2.88,0 6.14397,0.384 3.456,0.192 5.952,0.768 l -2.112,15.552 q -2.496,-0.576 -5.568,-0.96 -2.87997,-0.384 -5.56797,-0.384 -5.952,0 -11.328,2.496 -5.376,2.496 -9.6,7.104 -4.224,4.416 -6.72,10.752 -2.304,6.336 -2.304,14.208 v 54.912 h -16.896 v -102.912 h 13.824 l 1.92,18.816 h 0.768 q 3.264,-5.76 7.872,-10.368 4.608,-4.8 10.56,-7.488 5.952,-2.88 13.056,-2.88 z m 66.43197,0.192 q 18.816,0 27.84,8.256 9.024,8.256 9.024,26.304 v 70.08 h -12.288 l -3.264,-14.592 h -0.768 q -4.416,5.568 -9.216,9.408 -4.608,3.648 -10.752,5.376 -5.952,1.728 -14.592,1.728 -9.216,0 -16.704,-3.264 -7.296,-3.264 -11.52,-9.984 -4.224,-6.912 -4.224,-17.28 0,-15.36 12.096,-23.616 12.096,-8.448 37.248,-9.216 l 17.472,-0.576 v -6.144 q 0,-12.864 -5.568,-17.856 -5.568,-4.992 -15.744,-4.992 -8.064,0 -15.36,2.496 -7.296,2.304 -13.632,5.376 l -5.184,-12.672 q 6.72,-3.648 15.936,-6.144 9.216,-2.688 19.2,-2.688 z m 4.992,54.912 q -19.2,0.768 -26.688,6.144 -7.296,5.376 -7.296,15.168 0,8.64 5.184,12.672 5.376,4.032 13.632,4.032 13.056,0 21.696,-7.104 8.64,-7.296 8.64,-22.272 v -9.216 z"
       id="text23-6"
       style="font-size:192px;font-family:'Noto Sans Adlam';-inkscape-font-specification:'Noto Sans Adlam';white-space:pre;inline-size:1027.27"
       transform="translate(-65.209206,257.312)"
       aria-label="GeoVentra" />
    <rect
       style="fill:#000000;fill-opacity:1"
       id="rect25-2"
       width="940.69629"
       height="9.6112003"
       x="163.70268"
       y="218.63919" />
    <rect
       style="fill:#000000;fill-opacity:1;stroke-width:2.84376"
       id="rect25-6-7"
       width="44.430233"
       height="8.9843426"
       x="153.19299"
       y="219.26826"
       ry="4.4921713" />
    <ellipse
       style="fill:#000000;fill-opacity:1;stroke-width:1"
       id="path37-0"
       cx="163.69922"
       cy="218.71289"
       rx="0.0625"
       ry="0.072265625" />
    <path
       style="fill:#000000;fill-opacity:1"
       d="m 163.8125,218.73829 c -0.007,-0.004 -0.0156,-0.0182 -0.0195,-0.0117 -0.004,0.007 0.0258,0.0159 0.0195,0.0117 -0.0102,-0.007 -0.021,-0.0127 -0.0312,-0.0195 -0.003,-0.002 -0.005,-0.006 -0.008,-0.008 -0.007,-0.004 -0.0478,-0.0204 -0.0508,-0.0234 -9.2e-4,-9.2e-4 9.2e-4,-0.003 0,-0.004 -0.005,-0.005 -0.0213,-0.005 -0.0273,-0.008 -0.006,-0.003 -0.006,-0.006 -0.008,-0.008 -0.002,-0.002 -0.006,0.002 -0.008,0 -9.2e-4,-9.2e-4 9.2e-4,-0.003 0,-0.004 -0.002,-0.002 -0.006,0.002 -0.008,0 -9.2e-4,-9.2e-4 9.3e-4,-0.003 0,-0.004 -0.002,-0.002 -0.0165,0 -0.0195,0 -0.005,0 -0.0281,-0.003 -0.0312,0 -9.2e-4,9.2e-4 9.2e-4,0.003 0,0.004 -9.2e-4,9.2e-4 -0.003,-5.8e-4 -0.004,0 -0.003,0.002 -0.005,0.006 -0.008,0.008 -0.002,0.001 -0.006,-0.002 -0.008,0 -9.2e-4,9.3e-4 9.2e-4,0.003 0,0.004 -0.002,0.002 -0.005,-0.001 -0.008,0 -0.007,0.003 -0.0126,0.008 -0.0195,0.0117 -0.002,10e-4 -0.005,-0.001 -0.008,0 -0.01,0.005 -0.0198,0.008 -0.0312,0.0117 -0.0125,0.004 -0.0199,0.0139 -0.0312,0.0195"
       id="path50-3" />
    <path
       style="fill:#000000;fill-opacity:1"
       d="m 163.95667,218.95644 0.40049,3.8701"
       id="path51-9" />
    <path
       style="fill:#000000;fill-opacity:1"
       d="m 164.23299,224.37174 -0.35871,-5.72553"
       id="path52-9" />
    <path
       style="fill:#000000;fill-opacity:1"
       d="m 162.08074,218.85316 -11.3089,7.29163"
       id="path53-9" />
    <path
       style="fill:#000000;fill-opacity:1"
       d="m 154.7443,228.61135 -4.25806,-3.76475"
       id="path54-1" />
    <path
       style="fill:#000000;fill-opacity:1"
       d="m 149.99293,223.73016 5.21872,4.20613 m 5.42644,-1.97325 0.83084,0.026"
       id="path55-7" />
    <path
       style="fill:#000000;fill-opacity:1"
       d="m 163.2864,225.4957 -11.06059,-0.70103"
       id="path56-2" />
    <path
       style="fill:#000000;fill-opacity:1"
       d="m 155.57515,222.43197 -3.50512,1.94728"
       id="path57-3" />
    <path
       style="fill:#000000;fill-opacity:1"
       d="m 154.71834,226.6381 8.87962,-5.66011"
       id="path58-6" />
    <path
       style="fill:#000000;fill-opacity:1"
       d="m 164.28516,219.12892 5.04744,4.06463"
       id="path60-5" />
    <path
       style="fill:#000000;fill-opacity:1"
       d="m 180.37603,226.4872 -10.40796,-2.24228"
       id="path61-5" />
    <path
       style="fill:#000000;fill-opacity:1"
       d="m 165.65416,226.20579 -0.86278,1.49026"
       id="path62-8" />
    <path
       style="fill:#000000;fill-opacity:1"
       d="m 162.41406,219.22657 0.96875,-0.52344 0.48828,-0.0117 0.008,0.77343 z"
       id="path63-1" />
    <path
       style="fill:#000000;fill-opacity:1"
       d="m 162.36719,219.72267 0.95442,0.24435 -5.22395,8.28299 z"
       id="path64-4" />
    <path
       style="fill:#000000;fill-opacity:1"
       d="m 157.30051,227.02305 -0.10386,-0.0687 z"
       id="path65-7" />
    <rect
       style="fill:#000000;fill-opacity:1"
       id="rect65-1"
       width="9.2925386"
       height="3.5769908"
       x="148.88428"
       y="224.67575"
       ry="0.60557717" />
    <path
       style="fill:#000000"
       d="m 120.98234,251.27102 983.41606,-23.02101 -0.2656,-0.62109 -957.35563,-0.79146 z"
       id="path1-3" />
  </g>
</svg>
